<svg xmlns="http://www.w3.org/2000/svg" viewBox="0 0 821.07 504.65">
  <defs>
    <style>
      .cls-1 {
        fill: #424d31;
      }

      .cls-2 {
        fill: #eff0ec;
      }
    </style>
  </defs>
  <g id="Layer_2" data-name="Layer 2">
    <g id="Layer_1-2" data-name="Layer 1">
      <path class="cls-1" d="M291.21,121.72c19.63,16.32,38.29,34.55,57.16,51.82,18.13,16.6,37,32.71,54.59,49.86l-.36,92.3L392,305.62c-12.54-10.8-24.59-22.22-36.78-33.4-28.26-25.91-56.27-52.18-84.85-77.72C275.29,167.23,280.33,147.44,291.21,121.72Z"/>
      <path class="cls-1" d="M521.43,121.91c2,2.66,3.5,7.68,4.73,10.86a304.69,304.69,0,0,1,16.51,61.45L421.87,305.28,410.6,315.44l-.06-92.3c6.48-6.66,13.71-12.8,20.57-19.08l35.34-32.38,34.26-31.2C507.55,134.25,514.29,127.79,521.43,121.91Z"/>
      <path class="cls-1" d="M269.33,203.65c4.68,3.18,9,7.83,13.17,11.67l25.85,23.82L403,325.78c-.32,13.71,0,27.43-.31,41.14q-4.51-.35-9-.81c-38.15-4.16-73.15-19.24-97.57-49.88C270.77,284.48,265,243,269.33,203.65Z"/>
      <path class="cls-1" d="M543.08,203.76l.53.26c1.62,4.11,1.14,11.07,1.29,15.52,1.23,38.23-8.21,76.41-35.08,104.87-24.79,26.26-61.55,40.92-97.39,42.09l-1.39-.21c-1.34-2.8-.53-35.1-.53-40.65,17.95-17.42,36.88-34,55.3-50.91Q504.23,239,543.08,203.76Z"/>
      <path class="cls-1" d="M325.46,64.76c26.1,23.19,51.68,47,77.56,70.41-.46,26.06-.07,52.17,0,78.23l-15.31-14c-12.61-10.61-24.64-22.32-36.85-33.42q-28.33-25.39-56.06-51.47A332.55,332.55,0,0,1,325.46,64.76Z"/>
      <path class="cls-1" d="M487.25,64.79c10.66,12,24.47,35.08,30.88,50-30.69,27.05-60,55.64-90.75,82.65q-8.29,7.88-16.82,15.48l0-78.18Z"/>
      <path class="cls-1" d="M402.54,0c1.22,2.91.22,112.83.3,125.17-11.88-11.26-24.26-22-36.28-33.1-11.92-11.29-24.42-21.92-36.38-33.16C350.25,34.53,375.55,16,402.54,0Z"/>
      <path class="cls-1" d="M410.48.09c26.52,13.77,53,36.15,72.3,58.93q-17,15-33.57,30.35l-38.63,35.39Z"/>
      <path class="cls-1" d="M366.8,427.86c.63-.1,1.25-.18,1.88-.25s1.25-.12,1.88-.15,1.26-.06,1.89-.06,1.27,0,1.89,0,1.26.07,1.89.12,1.26.13,1.88.22,1.25.19,1.87.31,1.23.25,1.84.4,1.23.31,1.83.48,1.21.37,1.8.58,1.19.43,1.77.67,1.17.48,1.74.75,1.14.54,1.7.83,1.1.6,1.65.92,1.08.65,1.6,1,1,.7,1.56,1.07,1,.76,1.5,1.15,1,.81,1.45,1.23.93.84,1.38,1.29.89.89,1.31,1.35.85.94,1.25,1.42.8,1,1.18,1.48.75,1,1.1,1.54.7,1.05,1,1.59.65,1.08.95,1.63.59,1.12.87,1.68.53,1.15.78,1.73.48,1.16.7,1.75.42,1.19.61,1.79.36,1.21.52,1.82.31,1.22.44,1.84.24,1.24.34,1.86.18,1.25.25,1.87.12,1.26.16,1.89.06,1.26.07,1.89,0,1.26,0,1.89-.06,1.26-.12,1.89-.12,1.25-.21,1.88-.18,1.24-.3,1.86-.25,1.24-.4,1.85-.3,1.22-.48,1.83-.37,1.21-.57,1.8-.43,1.19-.66,1.77-.48,1.17-.75,1.74-.54,1.14-.83,1.7-.59,1.11-.91,1.66-.65,1.08-1,1.61-.7,1-1.07,1.56-.76,1-1.15,1.5-.8,1-1.22,1.45-.84.93-1.28,1.38-.9.89-1.36,1.32-.93.85-1.41,1.26-1,.8-1.48,1.18-1,.75-1.53,1.11-1.05.7-1.59,1-1.08.65-1.63.95-1.11.6-1.68.87-1.14.54-1.72.79-1.16.48-1.75.7-1.19.43-1.79.62-1.21.37-1.82.53-1.22.31-1.84.44-1.23.25-1.86.35-1.25.18-1.88.25-1.25.13-1.89.17-1.26.06-1.89.07-1.27,0-1.9,0-1.26-.06-1.9-.12-1.25-.12-1.88-.21-1.25-.18-1.88-.3-1.24-.24-1.85-.39-1.23-.31-1.84-.48-1.21-.37-1.81-.57-1.19-.43-1.78-.66-1.17-.49-1.74-.75-1.15-.54-1.71-.83-1.11-.6-1.66-.92-1.09-.65-1.62-1-1.05-.7-1.56-1.07-1-.75-1.51-1.15-1-.8-1.45-1.22-.94-.85-1.39-1.29-.9-.9-1.33-1.36-.85-.94-1.25-1.43-.81-1-1.19-1.48-.75-1-1.11-1.54-.7-1.05-1-1.59-.65-1.09-1-1.64-.59-1.12-.87-1.69-.54-1.14-.79-1.72-.48-1.17-.7-1.77-.42-1.19-.61-1.79-.37-1.21-.53-1.83-.31-1.22-.43-1.84-.25-1.24-.35-1.87-.18-1.25-.25-1.88-.12-1.26-.16-1.89-.06-1.27-.07-1.9,0-1.26,0-1.9.06-1.26.12-1.89.13-1.26.21-1.89.19-1.25.31-1.87.25-1.24.4-1.86.31-1.22.49-1.83.37-1.21.57-1.81.43-1.19.67-1.78.49-1.16.75-1.74.55-1.14.84-1.7.6-1.12.92-1.66.65-1.08,1-1.61.71-1.05,1.08-1.57.76-1,1.15-1.5.81-1,1.23-1.45.85-.94,1.3-1.39.89-.89,1.36-1.32.94-.84,1.43-1.25,1-.8,1.48-1.18,1-.75,1.54-1.11,1.06-.7,1.6-1,1.09-.64,1.64-.94,1.12-.6,1.69-.87,1.15-.54,1.73-.78,1.17-.48,1.77-.7,1.19-.42,1.79-.61,1.22-.36,1.83-.52,1.23-.3,1.85-.43S366.18,428,366.8,427.86Z"/>
      <path class="cls-2" d="M366.93,438.59c.45-.1.9-.18,1.35-.25s.91-.14,1.36-.19.92-.08,1.38-.11.91-.05,1.37-.05.92,0,1.38,0,.91,0,1.37.08.91.1,1.37.16.91.13,1.36.22.9.18,1.34.29.89.22,1.33.35.88.27,1.31.42.87.31,1.29.48.85.35,1.27.55.82.39,1.23.6l1.21.67,1.17.72,1.13.78c.37.28.73.55,1.09.84s.71.59,1.05.89.68.62,1,.94.64.65,1,1,.61.68.9,1,.58.71.86,1.08.55.74.8,1.12.51.76.75,1.15.47.79.69,1.19.43.81.63,1.23.39.83.57,1.25.35.85.5,1.28.31.87.45,1.3.26.88.38,1.33.21.89.31,1.34.17.9.24,1.35.14.91.18,1.37.09.91.12,1.37,0,.91,0,1.37,0,.92,0,1.38-.05.91-.09,1.37-.09.91-.16,1.37-.14.91-.22,1.36-.19.9-.29,1.34-.23.89-.36,1.33-.27.88-.42,1.31-.32.86-.49,1.29-.35.84-.55,1.26-.39.83-.61,1.23-.43.81-.67,1.21-.47.78-.73,1.16-.51.76-.78,1.14-.55.73-.84,1.09-.59.7-.89,1-.62.68-.94,1l-1,.95c-.34.31-.69.61-1,.91s-.71.58-1.08.85-.74.54-1.12.8-.77.51-1.16.75l-1.19.68q-.6.33-1.23.63c-.41.2-.83.38-1.25.56s-.85.35-1.28.51-.87.3-1.31.43-.88.27-1.32.38-.89.22-1.34.31-.9.17-1.35.24-.91.13-1.36.18l-1.37.11-1.37,0c-.46,0-.91,0-1.37,0s-.91-.05-1.37-.09-.91-.1-1.36-.16-.9-.14-1.35-.23-.9-.18-1.34-.29-.89-.23-1.33-.36-.87-.27-1.3-.42l-1.29-.48c-.42-.17-.84-.36-1.25-.55s-.83-.4-1.23-.61-.81-.43-1.2-.67-.78-.47-1.16-.72-.76-.51-1.13-.78-.73-.55-1.09-.84-.7-.58-1-.89-.68-.62-1-.94-.65-.65-.95-1-.62-.68-.91-1-.58-.71-.85-1.08-.54-.74-.8-1.11-.5-.77-.74-1.16-.47-.78-.69-1.18-.42-.81-.62-1.22-.39-.83-.57-1.25-.34-.85-.5-1.28-.31-.86-.44-1.3-.26-.87-.38-1.32-.22-.88-.31-1.33-.18-.9-.25-1.35-.13-.91-.18-1.36-.08-.91-.11-1.37,0-.91,0-1.37,0-.91,0-1.37,0-.91.09-1.37.09-.91.15-1.36.14-.9.22-1.35.18-.9.29-1.35.23-.88.36-1.32.26-.87.41-1.31.31-.86.49-1.28.35-.84.54-1.26.39-.83.6-1.23.44-.81.67-1.2.47-.78.72-1.17.51-.75.78-1.12.55-.74.83-1.09.58-.71.89-1.05.61-.68.93-1,.65-.65,1-1,.68-.61,1-.91.7-.57,1.07-.85.73-.54,1.11-.8.76-.51,1.15-.75.79-.47,1.19-.69.8-.43,1.22-.63.82-.39,1.24-.57l1.28-.5c.43-.16.86-.31,1.3-.45l1.31-.38C366,438.79,366.48,438.68,366.93,438.59Z"/>
      <path class="cls-1" d="M643.54,427.89c.62-.09,1.24-.17,1.87-.24s1.26-.11,1.89-.14,1.26-.05,1.89-.06,1.26,0,1.89,0,1.25.07,1.88.13,1.25.14,1.88.23,1.24.19,1.86.31,1.24.26,1.85.41,1.22.31,1.82.49,1.21.38,1.8.59,1.18.43,1.77.67,1.16.49,1.73.76,1.13.54,1.69.84,1.11.6,1.65.92,1.08.66,1.6,1,1,.7,1.55,1.08,1,.75,1.5,1.15,1,.81,1.44,1.23.93.85,1.37,1.29.89.9,1.31,1.37.84.94,1.25,1.42.79,1,1.17,1.48.74,1,1.1,1.54.69,1.06,1,1.59.64,1.09.94,1.64.58,1.12.86,1.69.53,1.14.77,1.72.48,1.17.7,1.76.41,1.19.6,1.79.36,1.21.52,1.82.29,1.22.42,1.84.24,1.24.34,1.86.18,1.25.24,1.88.12,1.25.15,1.88.06,1.26.06,1.89,0,1.26,0,1.89-.07,1.26-.13,1.89-.13,1.25-.22,1.87-.19,1.25-.31,1.87-.25,1.23-.4,1.85-.31,1.22-.49,1.82-.37,1.21-.58,1.8-.43,1.19-.66,1.77-.49,1.16-.76,1.73-.54,1.14-.83,1.7-.6,1.11-.92,1.65-.65,1.08-1,1.61-.7,1-1.08,1.55-.75,1-1.15,1.5-.8,1-1.22,1.44-.85.93-1.29,1.38-.9.89-1.36,1.32-.94.84-1.42,1.24-1,.8-1.48,1.18-1,.74-1.54,1.1-1,.7-1.59,1-1.08.65-1.63.95-1.12.59-1.68.87-1.14.53-1.72.78-1.17.48-1.76.69-1.19.42-1.79.61-1.21.36-1.82.52-1.22.31-1.84.43-1.24.25-1.86.35-1.25.18-1.88.24-1.26.13-1.89.16-1.26.06-1.9.07-1.26,0-1.89,0-1.27-.07-1.9-.13-1.25-.12-1.88-.21-1.25-.19-1.87-.31-1.24-.25-1.86-.4-1.22-.31-1.83-.49-1.21-.37-1.81-.58-1.19-.43-1.77-.67-1.17-.48-1.74-.75-1.15-.54-1.71-.84-1.11-.6-1.65-.92-1.09-.65-1.61-1-1-.71-1.56-1.08-1-.76-1.51-1.16-1-.8-1.45-1.23-.93-.85-1.38-1.29-.89-.9-1.32-1.37-.84-.94-1.25-1.42-.8-1-1.18-1.49-.75-1-1.1-1.54-.7-1.06-1-1.6-.64-1.09-.94-1.64-.6-1.12-.87-1.69-.53-1.15-.78-1.73-.48-1.17-.7-1.76-.42-1.2-.6-1.8-.36-1.21-.52-1.83-.3-1.23-.43-1.84-.24-1.25-.34-1.87-.18-1.25-.24-1.88-.12-1.26-.15-1.89-.06-1.27-.06-1.9,0-1.27,0-1.9.07-1.26.13-1.89.13-1.26.22-1.88.19-1.25.31-1.88.26-1.23.41-1.85.31-1.22.49-1.83.38-1.21.59-1.81.43-1.18.67-1.77.49-1.16.76-1.74.55-1.14.84-1.7.61-1.11.93-1.65.66-1.08,1-1.61.71-1,1.08-1.56.76-1,1.16-1.5.81-1,1.23-1.44.86-.93,1.3-1.38.91-.89,1.37-1.32,1-.84,1.43-1.24,1-.8,1.49-1.18,1-.74,1.55-1.1,1.06-.69,1.6-1,1.09-.64,1.64-.94,1.12-.59,1.69-.86,1.15-.53,1.74-.78,1.17-.47,1.76-.69,1.2-.42,1.8-.6,1.22-.36,1.83-.51,1.23-.3,1.85-.43S642.91,428,643.54,427.89Z"/>
      <path class="cls-2" d="M644.06,438.49c.45-.08.9-.16,1.35-.22s.91-.13,1.36-.17l1.37-.09,1.38,0c.45,0,.91,0,1.37,0s.91.06,1.37.1.91.11,1.36.18.9.15,1.35.24.89.19,1.34.3.88.24,1.32.38.87.28,1.3.43.86.32,1.28.5l1.25.56c.41.2.82.41,1.22.63s.8.44,1.19.68.78.48,1.16.74.75.52,1.12.79l1.08.85c.35.29.69.59,1,.9s.67.63,1,.95.64.66.94,1,.6.69.89,1.05.57.71.84,1.08.53.75.79,1.13.49.77.73,1.16.45.79.67,1.2.41.81.61,1.23.37.83.55,1.26.33.85.48,1.28.3.87.43,1.3.25.88.36,1.33.2.89.29,1.34.16.9.23,1.35.12.91.16,1.37.07.91.09,1.36,0,.92,0,1.38,0,.91,0,1.37-.06.91-.11,1.37-.11.9-.18,1.36-.15.9-.24,1.35-.19.89-.31,1.34-.24.88-.37,1.32-.28.87-.44,1.3-.32.85-.5,1.27-.37.84-.56,1.26-.41.82-.63,1.22-.44.8-.68,1.19-.49.77-.74,1.15-.53.75-.8,1.12-.56.72-.85,1.08-.6.69-.9,1-.63.67-1,1-.66.63-1,.94l-1,.89c-.36.29-.72.57-1.09.84s-.74.53-1.13.78-.77.49-1.16.73-.79.45-1.2.66-.81.42-1.23.61-.83.38-1.26.55l-1.28.49c-.43.15-.87.29-1.31.42s-.88.25-1.32.35-.89.21-1.34.3-.9.16-1.35.22-.91.12-1.36.16-.91.07-1.37.09-.91,0-1.37,0-.91,0-1.37-.05-.91-.06-1.36-.11-.91-.1-1.36-.17-.9-.15-1.35-.24l-1.34-.31c-.44-.12-.88-.24-1.31-.38s-.87-.28-1.3-.43-.86-.33-1.28-.51-.83-.36-1.25-.56-.81-.4-1.22-.62-.79-.45-1.18-.69-.78-.48-1.16-.74-.75-.52-1.11-.79-.72-.56-1.08-.85-.69-.59-1-.9l-1-.95c-.33-.33-.64-.66-.94-1s-.6-.69-.89-1-.57-.72-.84-1.08-.53-.75-.78-1.13-.49-.77-.73-1.16-.45-.79-.67-1.2-.41-.81-.6-1.22-.38-.84-.55-1.26-.34-.85-.49-1.28-.29-.87-.42-1.3-.25-.88-.36-1.33-.21-.88-.29-1.33-.17-.9-.23-1.35-.12-.91-.16-1.36-.07-.91-.09-1.37,0-.91,0-1.37,0-.91,0-1.37.06-.91.11-1.36.1-.91.17-1.36.15-.9.24-1.35.2-.89.31-1.34.24-.88.37-1.32.28-.86.44-1.29.32-.86.5-1.28.36-.84.56-1.25.4-.82.62-1.22.44-.8.68-1.19.48-.77.74-1.15.52-.75.79-1.12l.85-1.08c.29-.35.59-.69.9-1s.62-.66,1-1,.65-.63,1-.94.69-.6,1-.89.71-.56,1.08-.83.74-.54,1.12-.79.77-.49,1.16-.73l1.2-.67c.4-.21.81-.41,1.22-.61l1.26-.55,1.28-.49c.43-.15.86-.29,1.3-.42s.88-.25,1.32-.36S643.61,438.58,644.06,438.49Z"/>
      <path class="cls-1" d="M197.63,428.68c.62-.11,1.23-.2,1.85-.28s1.24-.14,1.86-.18,1.24-.08,1.87-.09,1.24,0,1.86,0,1.25.05,1.87.09,1.24.11,1.86.19,1.23.16,1.84.27,1.23.23,1.84.37,1.21.28,1.81.45,1.19.35,1.79.54,1.17.41,1.75.63,1.16.47,1.73.72,1.13.52,1.69.8,1.1.57,1.64.88,1.08.63,1.6,1,1,.68,1.55,1,1,.73,1.5,1.12,1,.78,1.44,1.19.94.82,1.39,1.25.89.87,1.31,1.33.85.91,1.26,1.38.8,1,1.18,1.45.75,1,1.11,1.5.7,1,1,1.56.65,1.06,1,1.6.59,1.09.87,1.65.55,1.12.8,1.69.48,1.15.71,1.73.43,1.17.62,1.76.37,1.19.54,1.79.31,1.2.44,1.81.26,1.22.36,1.83.19,1.23.27,1.85.13,1.24.17,1.86.07,1.24.09,1.87,0,1.24,0,1.86-.05,1.25-.1,1.87-.11,1.24-.19,1.86-.17,1.23-.28,1.84-.24,1.23-.38,1.83-.29,1.21-.46,1.81-.35,1.2-.55,1.79-.41,1.17-.64,1.75-.47,1.16-.72,1.73-.53,1.12-.81,1.68-.58,1.1-.89,1.64-.63,1.07-1,1.6-.69,1-1.05,1.54-.73,1-1.12,1.5-.78,1-1.19,1.43-.83.93-1.27,1.38-.87.88-1.32,1.31-.92.84-1.4,1.25-1,.79-1.45,1.17-1,.75-1.51,1.1-1,.7-1.56,1-1.06.65-1.61.95-1.09.59-1.65.87-1.12.53-1.69.78-1.15.48-1.74.7-1.17.43-1.76.62-1.19.37-1.79.53-1.21.3-1.81.44-1.22.24-1.84.35-1.22.18-1.84.25-1.23.13-1.85.17-1.23.07-1.85.08-1.24,0-1.86,0-1.24-.05-1.85-.1-1.23-.12-1.85-.2-1.22-.17-1.83-.29-1.22-.23-1.82-.37-1.2-.3-1.8-.47-1.19-.35-1.77-.55-1.17-.41-1.75-.63-1.14-.47-1.71-.73-1.12-.52-1.67-.8-1.09-.58-1.63-.89-1.07-.63-1.59-1-1-.68-1.54-1-1-.73-1.48-1.12-1-.78-1.43-1.18-.92-.83-1.37-1.26-.88-.87-1.3-1.32-.84-.91-1.24-1.38-.79-.95-1.17-1.44-.75-1-1.1-1.5-.7-1-1-1.55-.64-1.05-.94-1.59-.59-1.09-.87-1.64-.54-1.12-.79-1.69-.48-1.14-.7-1.71-.43-1.17-.62-1.76-.37-1.18-.53-1.77-.31-1.2-.44-1.81-.26-1.21-.36-1.82-.19-1.22-.26-1.84-.14-1.23-.18-1.85-.07-1.23-.09-1.85,0-1.24,0-1.86.05-1.23.1-1.85.11-1.23.19-1.85.16-1.22.27-1.83.23-1.22.37-1.82.29-1.21.46-1.8.34-1.19.54-1.78.4-1.17.63-1.75.46-1.14.71-1.71.52-1.12.8-1.68.57-1.09.88-1.63.62-1.07.95-1.59.68-1,1-1.55.72-1,1.1-1.49.78-1,1.18-1.43.83-.93,1.25-1.37.87-.89,1.32-1.32.9-.84,1.37-1.24,1-.8,1.44-1.18,1-.75,1.49-1.1,1-.7,1.55-1,1-.65,1.59-1,1.08-.6,1.64-.88,1.11-.54,1.67-.79,1.14-.49,1.72-.71,1.16-.43,1.75-.63,1.18-.37,1.77-.54,1.2-.31,1.8-.45S197,428.78,197.63,428.68Z"/>
      <path class="cls-2" d="M198.09,435.39c.5-.1,1-.19,1.51-.26s1-.14,1.53-.19l1.53-.12c.51,0,1,0,1.54,0s1,0,1.53,0,1,.06,1.54.11,1,.11,1.52.18l1.52.26c.5.1,1,.22,1.5.34s1,.26,1.48.41,1,.31,1.46.48,1,.35,1.44.55.94.4,1.4.62.93.45,1.38.69.9.5,1.34.76.87.53,1.3.82.84.58,1.25.88.82.62,1.22.95.78.66,1.16,1,.75.7,1.12,1.06.71.73,1.06,1.11.68.77,1,1.17.64.8,1,1.21.6.83.89,1.25.56.86.82,1.3.52.89.76,1.34.47.91.69,1.37.43.93.62,1.41.39,1,.56,1.43.33,1,.48,1.46.29,1,.41,1.48.24,1,.34,1.5.19,1,.26,1.52.14,1,.19,1.52.09,1,.12,1.54,0,1,0,1.53,0,1,0,1.54-.07,1-.12,1.53-.11,1-.18,1.53-.17,1-.27,1.52-.21,1-.33,1.5-.26,1-.41,1.48-.31,1-.49,1.46-.35,1-.55,1.43-.4.94-.62,1.41-.45.92-.69,1.37-.5.9-.76,1.34-.54.87-.82,1.3-.58.84-.89,1.25-.62.82-.95,1.22-.66.78-1,1.16-.7.75-1.06,1.11-.73.72-1.11,1.06-.77.68-1.17,1-.8.64-1.21.94-.83.6-1.26.89-.86.56-1.3.82-.88.52-1.34.76-.91.47-1.37.69-.93.42-1.41.62-.95.38-1.43.55-1,.34-1.46.48-1,.29-1.48.41-1,.24-1.5.34-1,.19-1.52.26-1,.14-1.52.19-1,.08-1.53.11-1,0-1.54,0-1,0-1.53,0-1-.06-1.53-.11l-1.53-.19c-.5-.08-1-.17-1.51-.27s-1-.21-1.5-.33l-1.48-.41c-.49-.15-1-.31-1.45-.49s-1-.35-1.44-.55-.94-.4-1.4-.62-.92-.45-1.37-.69-.9-.5-1.34-.76-.87-.54-1.29-.82-.85-.58-1.26-.89-.81-.62-1.21-.94-.78-.66-1.16-1-.75-.7-1.11-1.06-.72-.73-1.06-1.11-.68-.77-1-1.17-.63-.79-.94-1.21-.6-.83-.88-1.25-.56-.86-.83-1.3-.51-.88-.75-1.33-.47-.91-.69-1.38-.43-.93-.63-1.4-.38-.95-.55-1.43-.33-1-.48-1.46-.29-1-.41-1.48-.24-1-.34-1.5-.19-1-.26-1.51-.14-1-.19-1.52-.09-1-.11-1.53,0-1,0-1.54,0-1,0-1.53.07-1,.12-1.53.11-1,.18-1.53.17-1,.26-1.51.22-1,.34-1.5.26-1,.41-1.48.31-1,.48-1.46.36-1,.55-1.43.4-.94.62-1.4.45-.92.69-1.38.49-.89.76-1.33.53-.88.82-1.3.58-.85.88-1.26.62-.81.94-1.21.66-.78,1-1.16.7-.75,1.06-1.11.73-.72,1.11-1.07.77-.67,1.16-1,.8-.64,1.21-1,.83-.6,1.26-.88.86-.56,1.29-.82.89-.52,1.34-.76.91-.48,1.37-.7l1.4-.62c.47-.2.95-.38,1.43-.55s1-.34,1.46-.49,1-.28,1.48-.41S197.58,435.49,198.09,435.39Z"/>
      <path class="cls-1" d="M483.62,438.92c.85-1,1.74-2,2.65-2.93a30.53,30.53,0,0,1,20.91-8.61c7.26.09,15.91,3.41,20.87,8.71a24,24,0,0,1,5.83,11.47c2.16,10.2.79,43.57.67,55.77L524,503.19l0-32.65c0-6.54.75-14-.74-20.33a14.33,14.33,0,0,0-.59-1.93,15.14,15.14,0,0,0-.84-1.83,14.83,14.83,0,0,0-1.06-1.71,16.09,16.09,0,0,0-1.28-1.56A16.92,16.92,0,0,0,506.85,438c-5.06,0-9.85,1.26-13.49,5-7.86,8-5.44,25.47-5.4,36.06q.07,12.09-.17,24.17l-10.21.09c-.41-10.88-.22-21.79-.22-32.68,0-5.67.46-11.9-.5-17.49a19.71,19.71,0,0,0-4.39-9.6,16.72,16.72,0,0,0-12.53-5.6c-5-.16-9.84,1.11-13.5,4.61a18.88,18.88,0,0,0-5.2,9.48c-1.51,6.58-.76,14.25-.72,21q.19,15.08,0,30.15l-10.75,0c-.2-24.57,0-49.13-.58-73.7l10.95-.94.11,7.61a35.73,35.73,0,0,1,17.27-8.49,33.93,33.93,0,0,1,6.13,0C472.31,428.55,478.12,432.47,483.62,438.92Z"/>
      <path class="cls-1" d="M31.13,428.24c1.1-.06,2.2-.11,3.3-.14a34.08,34.08,0,0,1,25.22,9.51c8.37,8.22,10.8,18.44,10.79,29.82-21.44.08-43-.23-64.39.46A56.61,56.61,0,0,0,8.56,478.1c3,7.82,8.65,14.32,16.46,17.59,8.58,3.58,17.8,2.61,26.16-.88a44.52,44.52,0,0,0,12.43-10.52l5,3.42c-5.33,7.33-12.13,12.66-21,15-10,2.64-21.7,1.6-30.61-3.9C8.65,493.66,2.91,484.68.89,475.18a42,42,0,0,1,5.93-31.61C12.66,434.87,21.05,430.14,31.13,428.24Z"/>
      <path class="cls-2" d="M33.41,434.47a28,28,0,0,1,17.26,4.16c8.56,5.46,11.88,13.78,14.08,23.2-8.61.4-17.32.17-25.95.2l-32.38-.11c1.19-6,3.26-11.78,7-16.65C18.56,438.59,25.26,435.56,33.41,434.47Z"/>
      <path class="cls-1" d="M588.66,384.57c7.73-.3,13.56,1.58,20.24,5.22a62.77,62.77,0,0,1-5.8,8.53c-4.14-1.9-7.67-3.52-12.39-3.6a13.71,13.71,0,0,0-10.2,4c-7.44,7.49-5.64,20.92-5.57,30.6h26.6l0,9.43q-13.23,0-26.45.29l0,38.63,0,25.67H564.07c-.39-21.53-.11-43.12-.14-64.66-4.63-.07-9.28,0-13.91.1l-.19-9.43,14-.13c-.17-11.41-1.82-24.08,5.33-33.9C574,388.75,580.92,385.86,588.66,384.57Z"/>
      <path class="cls-1" d="M789.56,396.64l1.34.19c1.8,3.7.5,26.89.45,32.57l28.06-.16,0,9.54q-14.17-.15-28.36-.1c.35,12.57-1,38.19,1.16,49,2,2.64,3.78,4.55,7,5.67,6.09,2.14,12-.17,17.42-2.87l4.37,8.16c.09.85.27.75-.26,1.32-2.74,3-10.9,4.36-15,4.53-6.72.28-14.16-1.23-19.1-6.09A21.42,21.42,0,0,1,781,487.76c-2.37-10.63-.55-36.62-.83-49.09l-15.2-.07c-.13-3.11-.11-6.23-.14-9.34l15.55,0-.29-29C783.25,399.17,786.4,397.86,789.56,396.64Z"/>
      <path class="cls-1" d="M288.76,427.66a46,46,0,0,1,8.54-.1c10.45.93,17.92,5.82,24.45,13.7q-4.22,3.11-8.51,6.08a29,29,0,0,0-9.24-7.55,24.54,24.54,0,0,0-19-.72,26.3,26.3,0,0,0-15.3,14c-.22.46-.42.93-.62,1.4s-.37.95-.54,1.43-.32,1-.47,1.46-.27,1-.39,1.48-.22,1-.31,1.49-.17,1-.24,1.51-.12,1-.16,1.52-.07,1-.08,1.53,0,1,0,1.52,0,1,.07,1.53.1,1,.16,1.52.14,1,.23,1.51.2,1,.32,1.5.24,1,.38,1.48.3,1,.47,1.45.34,1,.54,1.43a29,29,0,0,0,16,16,26.48,26.48,0,0,0,20.48-.9,35.7,35.7,0,0,0,9.05-7.64,100.08,100.08,0,0,1,8,6.52,36.19,36.19,0,0,1-19.27,12.72c-.62.15-1.24.29-1.87.41s-1.26.22-1.89.31-1.27.16-1.9.22l-1.91.12-1.92,0c-.64,0-1.28,0-1.91-.07s-1.28-.09-1.91-.16-1.27-.16-1.9-.26-1.26-.22-1.88-.35-1.25-.28-1.86-.44-1.23-.34-1.84-.54-1.21-.4-1.81-.62-1.19-.47-1.78-.72-1.16-.52-1.74-.8-1.13-.58-1.69-.89-1.11-.64-1.65-1-1.07-.71-1.59-1.08-1-.75-1.53-1.15-1-.8-1.48-1.22-.95-.85-1.41-1.29-.91-.9-1.35-1.37-.86-.94-1.27-1.43-.82-1-1.2-1.49-.77-1-1.13-1.55-.71-1.06-1.05-1.61-.66-1.09-1-1.65-.61-1.13-.89-1.7-.54-1.16-.79-1.75-.49-1.18-.71-1.78-.43-1.2-.62-1.81-.37-1.23-.53-1.84-.3-1.24-.43-1.87-.26-1.32-.36-2-.19-1.33-.26-2-.12-1.33-.15-2-.06-1.34-.06-2,0-1.35,0-2,.08-1.34.14-2,.15-1.34.25-2,.21-1.33.34-2,.28-1.31.44-2,.34-1.3.54-1.94.4-1.28.63-1.91.47-1.26.73-1.87.53-1.24.82-1.84.59-1.21.91-1.8.65-1.17,1-1.74.71-1.14,1.09-1.7C269.33,434.18,278,429.67,288.76,427.66Z"/>
      <path class="cls-1" d="M735.18,427.62a25.87,25.87,0,0,1,3.63,0c8,.69,12.87,3.93,17.93,9.83L747.83,444c-3.53-3.22-7.43-6-12.42-5.9a18.59,18.59,0,0,0-12.7,5.85,22.92,22.92,0,0,0-5.44,10.28c-2.41,9.8-.89,29.7-.84,40.67l0,8.27-10.92,0-.15-73.68,10.87-.83.12,9.55C721.56,431.82,727.29,429.23,735.18,427.62Z"/>
      <path class="cls-1" d="M118.8,428.27a40,40,0,0,1,8-.07c10.9.9,18.94,6.19,25.8,14.32-1.72,1.5-3.64,2.81-5.48,4.17a63.66,63.66,0,0,0-5.44-5.33,28,28,0,0,0-21.52-6.51A28.89,28.89,0,0,0,100,445.69a33.28,33.28,0,0,0-6.45,24.59,31.59,31.59,0,0,0,12.12,21.46c7.38,5.6,15.69,6.69,24.62,5.29,7.11-2.24,12-5.29,16.63-11.19,1.94,1.13,3.82,2.42,5.72,3.63a34.77,34.77,0,0,1-22.06,13.85c-9.77,1.75-20.34-.08-28.47-5.92a37.91,37.91,0,0,1-15-24.79,39.51,39.51,0,0,1,6.87-30C100.07,434.42,108.87,429.76,118.8,428.27Z"/>
    </g>
  </g>
</svg>
